<mxfile host="app.diagrams.net" modified="2021-01-25T21:33:34.829Z" agent="5.0 (Windows NT 10.0; Win64; x64) AppleWebKit/537.36 (KHTML, like Gecko) Chrome/87.0.4280.88 Safari/537.36 OPR/73.0.3856.284" etag="0P1KiNGP_2UTgEcJhx5W" version="14.2.7" type="github">
  <diagram id="ICP7XfCdU4k0QFbaAApS" name="Page-1">
    <mxGraphModel dx="998" dy="559" grid="1" gridSize="10" guides="1" tooltips="1" connect="1" arrows="1" fold="1" page="1" pageScale="1" pageWidth="827" pageHeight="1169" math="0" shadow="0">
      <root>
        <mxCell id="0" />
        <mxCell id="1" parent="0" />
        <mxCell id="QSonKLjE5DIXxnVEfX5k-2" value="" style="rounded=0;whiteSpace=wrap;html=1;" parent="1" vertex="1">
          <mxGeometry x="40" y="40" width="760" height="400" as="geometry" />
        </mxCell>
        <mxCell id="QSonKLjE5DIXxnVEfX5k-4" value="Navbar" style="rounded=0;whiteSpace=wrap;html=1;" parent="1" vertex="1">
          <mxGeometry x="40" y="40" width="760" height="50" as="geometry" />
        </mxCell>
        <mxCell id="QSonKLjE5DIXxnVEfX5k-6" value="" style="rounded=0;whiteSpace=wrap;html=1;" parent="1" vertex="1">
          <mxGeometry x="250" y="110" width="150" height="110" as="geometry" />
        </mxCell>
        <mxCell id="QSonKLjE5DIXxnVEfX5k-7" value="" style="rounded=0;whiteSpace=wrap;html=1;" parent="1" vertex="1">
          <mxGeometry x="440" y="110" width="150" height="110" as="geometry" />
        </mxCell>
        <mxCell id="QSonKLjE5DIXxnVEfX5k-8" value="" style="rounded=0;whiteSpace=wrap;html=1;" parent="1" vertex="1">
          <mxGeometry x="630" y="110" width="150" height="110" as="geometry" />
        </mxCell>
        <mxCell id="QSonKLjE5DIXxnVEfX5k-9" value="Informatie" style="rounded=0;whiteSpace=wrap;html=1;" parent="1" vertex="1">
          <mxGeometry x="60" y="220" width="150" height="20" as="geometry" />
        </mxCell>
        <mxCell id="QSonKLjE5DIXxnVEfX5k-10" value="Informatie" style="rounded=0;whiteSpace=wrap;html=1;" parent="1" vertex="1">
          <mxGeometry x="250" y="220" width="150" height="20" as="geometry" />
        </mxCell>
        <mxCell id="QSonKLjE5DIXxnVEfX5k-11" value="Informatie" style="rounded=0;whiteSpace=wrap;html=1;" parent="1" vertex="1">
          <mxGeometry x="440" y="220" width="150" height="20" as="geometry" />
        </mxCell>
        <mxCell id="QSonKLjE5DIXxnVEfX5k-12" value="Informatie" style="rounded=0;whiteSpace=wrap;html=1;" parent="1" vertex="1">
          <mxGeometry x="630" y="220" width="150" height="20" as="geometry" />
        </mxCell>
        <mxCell id="QSonKLjE5DIXxnVEfX5k-13" value="Algemene informatie" style="rounded=0;whiteSpace=wrap;html=1;" parent="1" vertex="1">
          <mxGeometry x="60" y="260" width="720" height="120" as="geometry" />
        </mxCell>
        <mxCell id="cJjZH-XKdifrrdwPbRbD-1" value="" style="rounded=0;whiteSpace=wrap;html=1;" vertex="1" parent="1">
          <mxGeometry x="60" y="110" width="150" height="110" as="geometry" />
        </mxCell>
      </root>
    </mxGraphModel>
  </diagram>
</mxfile>
